<svg id="visual" viewBox="0 0 1920 1080" width="1920" height="1080" xmlns="http://www.w3.org/2000/svg" xmlns:xlink="http://www.w3.org/1999/xlink" version="1.1"><rect x="0" y="0" width="1920" height="1080" fill="#4FACF7"></rect><g fill="#0066FF"><circle r="141" cx="416" cy="1044"></circle><circle r="27" cx="901" cy="142"></circle><circle r="120" cx="1470" cy="595"></circle><circle r="61" cx="624" cy="592"></circle><circle r="102" cx="136" cy="1077"></circle><circle r="91" cx="230" cy="387"></circle><circle r="38" cx="1039" cy="550"></circle><circle r="93" cx="1698" cy="981"></circle><circle r="52" cx="984" cy="894"></circle><circle r="129" cx="1833" cy="155"></circle><circle r="26" cx="122" cy="30"></circle><circle r="36" cx="1212" cy="229"></circle><circle r="105" cx="491" cy="192"></circle><circle r="72" cx="1842" cy="521"></circle><circle r="123" cx="2" cy="695"></circle><circle r="128" cx="1326" cy="873"></circle><circle r="115" cx="1447" cy="29"></circle><circle r="134" cx="361" cy="762"></circle><circle r="75" cx="698" cy="973"></circle><circle r="92" cx="1602" cy="318"></circle></g></svg>